# xmcd
#
# Track frame offsets:
#	150
#	13043
#	26567
#	43424
#	66240
#	79205
#	94530
#	107218
#	125590
#	144129
#	160765
#	176063
#
# Disc length: 2558 seconds
#
# Revision: 1
# Processed by: cddbd v1.5.1PL0 Copyright (c) Steve Scherf et al.
# Submitted via: audiograbber 1.83.01
#
DISCID=9e09fc0c
DTITLE=Trudy Jane - Loving and Leavin`
DYEAR=2005
DGENRE=Country
TTITLE0=Hook Line
TTITLE1=Pick Up The Phone
TTITLE2=I Let You Win Again
TTITLE3=See You Again
TTITLE4=Tender Love
TTITLE5=I Won`t Let Go
TTITLE6=Show And Tell
TTITLE7=Telling On You
TTITLE8=No News Of You
TTITLE9=Loving You Forever
TTITLE10=I Will
TTITLE11=Sea Of Dreams
EXTD=
EXTT0=
EXTT1=
EXTT2=
EXTT3=
EXTT4=
EXTT5=
EXTT6=
EXTT7=
EXTT8=
EXTT9=
EXTT10=
EXTT11=
PLAYORDER=
